<svg width="24" height="24" viewBox="0 0 24 24" fill="none" xmlns="http://www.w3.org/2000/svg">
<path d="M8.18286 4.41689C8.19098 4.31152 8.19512 4.20502 8.19512 4.09756C8.19512 2.92773 7.70489 1.87239 6.91866 1.12579C6.18395 0.428094 5.19075 0 4.09756 0C1.83454 0 0 1.83454 0 4.09756C0 5.19075 0.428094 6.18395 1.12579 6.91866C1.87239 7.70489 2.92773 8.19512 4.09756 8.19512C4.20502 8.19512 4.31152 8.19098 4.41689 8.18286C6.42529 8.02805 8.02805 6.42529 8.18286 4.41689Z" fill="#101116"/>
<path d="M3.76344 9.94184C2.51991 9.87187 1.38012 9.41374 0.463268 8.68667C0.161582 9.73906 0 10.8507 0 12C0 18.6274 5.37258 24 12 24C18.6274 24 24 18.6274 24 12C24 5.37258 18.6274 0 12 0C10.8507 0 9.73906 0.161582 8.68667 0.463268C9.41374 1.38012 9.87187 2.51991 9.94184 3.76344C10.6008 3.59931 11.2902 3.5122 12 3.5122C16.6877 3.5122 20.4878 7.31231 20.4878 12C20.4878 16.6877 16.6877 20.4878 12 20.4878C7.31231 20.4878 3.5122 16.6877 3.5122 12C3.5122 11.2902 3.59931 10.6008 3.76344 9.94184Z" fill="#101116"/>
<path d="M8.18286 4.41689C8.19098 4.31152 8.19512 4.20502 8.19512 4.09756C8.19512 2.92773 7.70489 1.87239 6.91866 1.12579C6.18395 0.428094 5.19075 0 4.09756 0C1.83454 0 0 1.83454 0 4.09756C0 5.19075 0.428094 6.18395 1.12579 6.91866C1.87239 7.70489 2.92773 8.19512 4.09756 8.19512C4.20502 8.19512 4.31152 8.19098 4.41689 8.18286C6.42529 8.02805 8.02805 6.42529 8.18286 4.41689Z" fill="url(#paint0_linear_1429_19666)"/>
<defs>
<linearGradient id="paint0_linear_1429_19666" x1="0" y1="0" x2="8.19512" y2="8.19512" gradientUnits="userSpaceOnUse">
<stop stop-color="#6184FF"/>
<stop offset="1" stop-color="#4168EF"/>
</linearGradient>
</defs>
</svg>
