<svg width="22" height="18" viewBox="0 0 22 18" fill="none" xmlns="http://www.w3.org/2000/svg">
<path fill-rule="evenodd" clip-rule="evenodd" d="M19.2803 1.28033C19.5732 0.987437 19.5732 0.512563 19.2803 0.21967C18.9874 -0.0732233 18.5126 -0.0732233 18.2197 0.21967L2.21967 16.2197C1.92678 16.5126 1.92678 16.9874 2.21967 17.2803C2.51256 17.5732 2.98744 17.5732 3.28033 17.2803L9.226 11.3347C9.67264 11.5986 10.1936 11.75 10.75 11.75C12.4069 11.75 13.75 10.4069 13.75 8.75003C13.75 8.19367 13.5985 7.67267 13.3346 7.22604L19.2803 1.28033ZM1.5808 8.75003C1.6693 8.57488 1.79942 8.33083 1.97259 8.03989C2.34325 7.41719 2.90645 6.5876 3.6746 5.76037C5.21133 4.10543 7.52611 2.50003 10.75 2.50003C11.7158 2.50003 12.5951 2.64353 13.3937 2.88627C13.79 3.00675 14.2089 2.78314 14.3294 2.38684C14.4499 1.99053 14.2263 1.5716 13.8299 1.45112C12.8933 1.16638 11.867 1.00003 10.75 1.00003C6.97389 1.00003 4.28867 2.89463 2.5754 4.73969C1.71855 5.66246 1.09425 6.58287 0.683655 7.27267C0.477935 7.61828 0.324692 7.90797 0.221758 8.11384C0.170263 8.21683 0.131273 8.29901 0.104526 8.35692C0.0911497 8.38588 0.0808273 8.40878 0.073526 8.4252L0.0648329 8.44492L0.062176 8.45103L0.0612686 8.45313L0.0609199 8.45394C0.0607748 8.45428 0.0606412 8.45459 0.75 8.75003L0.0606412 8.45459C-0.0202137 8.64325 -0.0202137 8.85681 0.0606412 9.04547L0.75 8.75003C0.0606412 9.04547 0.060708 9.04563 0.0607779 9.04579L0.0609337 9.04615L0.0613024 9.04701L0.0622687 9.04925L0.0651185 9.0558L0.0745005 9.07705C0.0823961 9.09478 0.0935846 9.11955 0.108103 9.15087C0.137133 9.21351 0.179515 9.30244 0.235547 9.4137C0.347546 9.6361 0.51448 9.94856 0.738821 10.3193C1.1865 11.0592 1.8683 12.0403 2.80584 13.0027C3.09489 13.2993 3.56972 13.3055 3.86641 13.0165C4.1631 12.7274 4.16929 12.2526 3.88023 11.9559C3.04171 11.0952 2.427 10.2118 2.02217 9.54277C1.82408 9.2154 1.67758 8.94158 1.5808 8.75003ZM17.7321 4.57473C18.0318 4.28873 18.5065 4.29978 18.7925 4.5994C19.6956 5.5455 20.3528 6.50109 20.7847 7.21976C21.0011 7.57988 21.1622 7.88267 21.2703 8.09805C21.3244 8.2058 21.3654 8.29185 21.3934 8.35248C21.4075 8.38279 21.4183 8.40677 21.4259 8.42394L21.435 8.44454L21.4378 8.4509L21.4387 8.45308L21.4391 8.45392L21.4392 8.45428C21.4393 8.45444 21.4394 8.45459 20.75 8.75003C21.4394 9.04547 21.4392 9.04578 21.4391 9.04612L21.4387 9.04693L21.4378 9.04903L21.4352 9.05515L21.4265 9.07486C21.4192 9.09128 21.4088 9.11418 21.3955 9.14314C21.3687 9.20105 21.3297 9.28323 21.2782 9.38622C21.1753 9.59209 21.0221 9.88178 20.8163 10.2274C20.4058 10.9172 19.7815 11.8376 18.9246 12.7604C17.2113 14.6054 14.5261 16.5 10.75 16.5C9.67049 16.5 8.67558 16.3447 7.76432 16.0771C7.36688 15.9604 7.13929 15.5436 7.25598 15.1462C7.37267 14.7488 7.78945 14.5212 8.18688 14.6379C8.96379 14.866 9.8165 15 10.75 15C13.9739 15 16.2887 13.3946 17.8254 11.7397C18.5935 10.9125 19.1567 10.0829 19.5274 9.46017C19.7006 9.16923 19.8307 8.92518 19.9192 8.75003C19.8259 8.56539 19.6864 8.30425 19.499 7.99236C19.1087 7.34293 18.516 6.48213 17.7075 5.63511C17.4215 5.33548 17.4325 4.86073 17.7321 4.57473ZM20.75 8.75003L21.4394 8.45459C21.5202 8.64325 21.5202 8.85681 21.4394 9.04547L20.75 8.75003ZM7.7501 8.72565L7.75 8.75003L7.7501 8.77441V8.72565Z" fill="#C0C2CB"/>
</svg>
