<svg width="22" height="16" viewBox="0 0 22 16" fill="none" xmlns="http://www.w3.org/2000/svg">
<path fill-rule="evenodd" clip-rule="evenodd" d="M1.97259 8.46014C1.79942 8.1692 1.6693 7.92515 1.5808 7.75C1.6693 7.57485 1.79942 7.3308 1.97259 7.03986C2.34325 6.41716 2.90645 5.58757 3.6746 4.76034C5.21133 3.1054 7.52611 1.5 10.75 1.5C13.9739 1.5 16.2887 3.1054 17.8254 4.76034C18.5935 5.58757 19.1567 6.41716 19.5274 7.03986C19.7006 7.3308 19.8307 7.57485 19.9192 7.75C19.8307 7.92515 19.7006 8.1692 19.5274 8.46014C19.1567 9.08284 18.5935 9.91243 17.8254 10.7397C16.2887 12.3946 13.9739 14 10.75 14C7.52611 14 5.21133 12.3946 3.6746 10.7397C2.90645 9.91243 2.34325 9.08284 1.97259 8.46014ZM21.4391 7.45391C21.4392 7.45425 21.4394 7.45456 20.75 7.75C21.4394 8.04544 21.4392 8.04575 21.4391 8.04609L21.4387 8.0469L21.4378 8.049L21.4352 8.05511L21.4265 8.07483C21.4192 8.09125 21.4088 8.11415 21.3955 8.14311C21.3687 8.20102 21.3297 8.2832 21.2782 8.38619C21.1753 8.59206 21.0221 8.88175 20.8163 9.22736C20.4058 9.91716 19.7815 10.8376 18.9246 11.7603C17.2113 13.6054 14.5261 15.5 10.75 15.5C6.97389 15.5 4.28867 13.6054 2.5754 11.7603C1.71855 10.8376 1.09425 9.91716 0.683655 9.22736C0.477935 8.88175 0.324692 8.59206 0.221758 8.38619C0.170263 8.2832 0.131273 8.20102 0.104526 8.14311C0.0911497 8.11415 0.0808273 8.09125 0.073526 8.07483L0.0648329 8.05511L0.062176 8.049L0.0612686 8.0469L0.0609199 8.04609C0.0607748 8.04575 0.0606412 8.04544 0.75 7.75C0.0606412 7.45456 0.0607748 7.45425 0.0609199 7.45391L0.0612686 7.4531L0.062176 7.451L0.0648329 7.44488L0.073526 7.42517C0.0808273 7.40875 0.0911497 7.38585 0.104526 7.35689C0.131273 7.29898 0.170263 7.2168 0.221758 7.11381C0.324692 6.90794 0.477935 6.61825 0.683655 6.27264C1.09425 5.58284 1.71855 4.66243 2.5754 3.73966C4.28867 1.8946 6.97389 0 10.75 0C14.5261 0 17.2113 1.8946 18.9246 3.73966C19.7815 4.66243 20.4058 5.58284 20.8163 6.27264C21.0221 6.61825 21.1753 6.90794 21.2782 7.11381C21.3297 7.2168 21.3687 7.29898 21.3955 7.35689C21.4088 7.38585 21.4192 7.40875 21.4265 7.42517L21.4352 7.44488L21.4378 7.451L21.4387 7.4531L21.4391 7.45391ZM0.75 7.75L0.0606412 8.04544C-0.0202137 7.85678 -0.0202137 7.64322 0.0606412 7.45456L0.75 7.75ZM20.75 7.75L21.4394 7.45456C21.5202 7.64322 21.5202 7.85678 21.4394 8.04544L20.75 7.75ZM10.75 10.75C12.4069 10.75 13.75 9.40685 13.75 7.75C13.75 6.09315 12.4069 4.75 10.75 4.75C9.09315 4.75 7.75 6.09315 7.75 7.75C7.75 9.40685 9.09315 10.75 10.75 10.75Z" fill="#C0C2CB"/>
</svg>
